<svg width="224" height="41" viewBox="0 0 224 41" fill="none" xmlns="http://www.w3.org/2000/svg">
<path d="M13.3845 34.0954C13.2799 34.4093 13.245 34.8975 13.2799 35.5601C13.3147 36.1877 13.3322 36.8503 13.3322 37.5477C13.3322 38.2103 13.2624 38.838 13.1229 39.4308C12.9835 39.9887 12.7045 40.3374 12.286 40.4769C12.0419 40.5467 11.8327 40.6164 11.6583 40.6862C11.5189 40.7559 11.2922 40.8082 10.9784 40.8431C10.6645 40.8779 10.2286 40.9128 9.67067 40.9477C9.11273 40.9477 8.34556 40.9303 7.36915 40.8954C5.93942 40.8605 4.68405 40.7908 3.60303 40.6862C2.55689 40.5467 1.9292 40.3374 1.71997 40.0585C1.61536 39.919 1.51075 39.4133 1.40613 38.5416C1.30152 37.6349 1.21434 36.4667 1.1446 35.037C1.07485 33.5724 1.00511 31.9334 0.935367 30.1201C0.900495 28.2719 0.865624 26.354 0.830752 24.3663C0.830752 22.3438 0.830752 20.3212 0.830752 18.2987C0.830752 16.2413 0.848188 14.3059 0.88306 12.4926C0.917931 10.6444 0.952803 8.95311 0.987674 7.41877C1.05742 5.88442 1.12716 4.64649 1.1969 3.70496C1.26665 2.93779 1.73741 2.32754 2.6092 1.87421C3.51586 1.38601 4.64918 1.03729 6.00917 0.828063C7.36915 0.583962 8.86863 0.461911 10.5076 0.461911C12.1465 0.42704 13.7158 0.461911 15.2152 0.566524C16.7496 0.636268 18.127 0.758319 19.3475 0.932676C20.6029 1.10703 21.5095 1.26396 22.0675 1.40344C23.5321 1.8219 24.7526 2.44958 25.729 3.2865C26.7054 4.12342 27.49 5.13469 28.0828 6.32032C28.6756 7.47108 29.0941 8.77876 29.3382 10.2434C29.5823 11.708 29.6869 13.2772 29.652 14.951C29.6172 16.6248 29.5997 18.1243 29.5997 19.4494C29.6346 20.7745 29.5997 21.9776 29.4951 23.0586C29.4254 24.1048 29.2859 25.0463 29.0766 25.8832C28.9023 26.6853 28.5884 27.4176 28.1351 28.0801C27.612 28.8473 26.8972 29.475 25.9905 29.9632C25.1187 30.4514 24.1598 30.8524 23.1136 31.1662C22.0675 31.4801 21.0039 31.7416 19.9229 31.9509C18.8419 32.1252 17.848 32.317 16.9414 32.5262C16.0347 32.7006 15.2501 32.9098 14.5875 33.1539C13.9599 33.398 13.5588 33.7119 13.3845 34.0954ZM12.5999 21.6463C12.5999 22.274 12.9137 22.7448 13.5414 23.0586C14.204 23.3376 14.9363 23.4596 15.7383 23.4248C16.5404 23.3899 17.2901 23.2155 17.9875 22.9017C18.6849 22.5879 19.0685 22.1171 19.1383 21.4894C19.2429 20.6525 19.3301 19.8679 19.3998 19.1356C19.4696 18.4033 19.5044 17.671 19.5044 16.9387C19.5393 16.1715 19.5219 15.3695 19.4521 14.5326C19.4172 13.6956 19.3475 12.7367 19.2429 11.6557C19.1731 11.028 18.807 10.5572 18.1444 10.2434C17.4819 9.92952 16.7496 9.79003 15.9475 9.8249C15.1804 9.8249 14.4655 9.98182 13.8029 10.2957C13.1404 10.5746 12.7742 10.9931 12.7045 11.551C12.5999 12.4228 12.5301 13.3992 12.4953 14.4802C12.4604 15.5613 12.4604 16.6074 12.4953 17.6187C12.5301 18.5951 12.5476 19.4669 12.5476 20.234C12.5824 20.9663 12.5999 21.4371 12.5999 21.6463ZM48.2248 1.61267C48.2596 4.40239 48.1899 7.07006 48.0155 9.61567C47.8412 12.1613 47.7017 14.5674 47.5971 16.8341C47.4925 19.0658 47.475 21.1407 47.5448 23.0586C47.6494 24.9766 47.9632 26.7027 48.4863 28.237C48.6607 28.7601 49.1314 29.0391 49.8986 29.074C50.6658 29.1088 51.5376 29.074 52.514 28.9693C53.4904 28.8299 54.4842 28.7078 55.4955 28.6032C56.5416 28.4986 57.4134 28.5683 58.1108 28.8124C58.2503 28.8822 58.477 29.3355 58.7908 30.1724C59.1047 30.9745 59.3313 31.9334 59.4708 33.0493C59.6452 34.1652 59.6277 35.3159 59.4185 36.5016C59.2441 37.6523 58.7385 38.5939 57.9016 39.3262C57.6924 39.5354 56.9775 39.7621 55.757 40.0062C54.5714 40.2154 53.1242 40.4072 51.4155 40.5815C49.7068 40.721 47.876 40.8256 45.9232 40.8954C44.0053 40.9651 42.2094 40.9303 40.5356 40.7908C38.8618 40.6164 37.432 40.3374 36.2464 39.9539C35.0608 39.5354 34.3982 38.9426 34.2587 38.1754C34.1541 37.5826 34.0495 36.6062 33.9449 35.2462C33.8403 33.8862 33.7357 32.2996 33.631 30.4863C33.5613 28.6381 33.4916 26.633 33.4218 24.4709C33.3869 22.3089 33.3695 20.1469 33.3695 17.9848C33.3695 15.8228 33.3869 13.7305 33.4218 11.708C33.4567 9.68542 33.509 7.88953 33.5787 6.32032C33.6485 4.71623 33.7531 3.42599 33.8926 2.44958C34.0321 1.43831 34.2064 0.897805 34.4157 0.828063C34.6946 0.723448 35.2177 0.618833 35.9849 0.514218C36.7869 0.409605 37.6936 0.322426 38.7048 0.252682C39.751 0.148067 40.832 0.0957592 41.9479 0.0957592C43.0638 0.0957592 44.0751 0.148067 44.9817 0.252682C45.9232 0.322426 46.6904 0.479348 47.2832 0.723447C47.9109 0.932675 48.2248 1.22908 48.2248 1.61267ZM67.2045 1.76959C67.4835 1.42088 68.0937 1.1419 69.0353 0.932676C70.0117 0.688575 71.145 0.531653 72.4352 0.461911C73.7604 0.357296 75.1552 0.304988 76.6198 0.304988C78.1193 0.304988 79.549 0.33986 80.909 0.409605C82.269 0.479347 83.4721 0.566525 84.5182 0.67114C85.5643 0.775756 86.2966 0.88037 86.7151 0.984983C87.2033 1.12447 87.6741 1.75216 88.1274 2.86804C88.6156 3.98393 89.0689 5.4311 89.4874 7.20954C89.9058 8.95312 90.2894 10.9408 90.6381 13.1726C91.0217 15.3695 91.353 17.6361 91.632 19.9725C91.911 22.3089 92.1202 24.6278 92.2597 26.9294C92.434 29.196 92.5386 31.2534 92.5735 33.1016C92.6433 34.9498 92.6258 36.5016 92.5212 37.757C92.4166 38.9775 92.2248 39.7446 91.9458 40.0585C91.7715 40.2328 91.2484 40.3897 90.3766 40.5292C89.5048 40.6338 88.5284 40.721 87.4474 40.7908C86.4013 40.8256 85.3551 40.8431 84.309 40.8431C83.2977 40.8082 82.5305 40.7559 82.0075 40.6862C81.4844 40.6164 81.0485 40.2851 80.6998 39.6923C80.3859 39.0995 80.107 38.4195 79.8629 37.6523C79.6536 36.8852 79.4793 36.1529 79.3398 35.4554C79.2352 34.758 79.1654 34.2698 79.1306 33.9908C79.0608 33.7816 78.8516 33.5898 78.5029 33.4155C78.189 33.2411 77.8229 33.1539 77.4044 33.1539C76.986 33.119 76.5849 33.1888 76.2014 33.3631C75.8526 33.5375 75.626 33.8862 75.5214 34.4093C75.4167 34.9324 75.3296 35.5077 75.2598 36.1354C75.1901 36.7282 75.1029 37.3036 74.9983 37.8616C74.8937 38.3846 74.7542 38.8554 74.5798 39.2739C74.4403 39.6923 74.2137 39.9713 73.8998 40.1108C73.4814 40.32 72.6968 40.5118 71.546 40.6862C70.4301 40.8256 69.2445 40.8954 67.9891 40.8954C66.7337 40.8954 65.583 40.7908 64.5368 40.5815C63.4907 40.3723 62.8456 40.0236 62.6015 39.5354C62.2876 38.8031 62.1133 37.4605 62.0784 35.5077C62.0435 33.5549 62.1133 31.2883 62.2876 28.7078C62.462 26.1273 62.7235 23.4073 63.0722 20.5479C63.421 17.6535 63.822 14.9336 64.2753 12.388C64.7286 9.80747 65.1994 7.55825 65.6876 5.64032C66.2107 3.72239 66.7163 2.43215 67.2045 1.76959ZM74.2137 23.2155C74.2137 23.8432 74.545 24.314 75.2075 24.6278C75.8701 24.9068 76.6024 25.0463 77.4044 25.0463C78.2065 25.0114 78.9388 24.8371 79.6013 24.5232C80.2988 24.1745 80.6649 23.6863 80.6998 23.0586C80.7346 22.152 80.7346 21.3325 80.6998 20.6002C80.6998 19.8679 80.6649 19.1356 80.5952 18.4033C80.5603 17.671 80.4905 16.9038 80.3859 16.1018C80.2813 15.2649 80.1767 14.3059 80.0721 13.2249C80.0023 12.5972 79.7059 12.1264 79.1829 11.8126C78.6598 11.4987 78.0844 11.3592 77.4567 11.3941C76.8639 11.3941 76.306 11.551 75.7829 11.8649C75.2947 12.1439 75.0157 12.5623 74.946 13.1203C74.8414 13.992 74.7368 14.9684 74.6321 16.0495C74.5624 17.1305 74.4927 18.1766 74.4229 19.1879C74.3532 20.1643 74.3009 21.0361 74.266 21.8033C74.2311 22.5356 74.2137 23.0063 74.2137 23.2155ZM108.908 26.1971C108.698 26.1971 108.559 26.5283 108.489 27.1909C108.454 27.8186 108.437 28.6381 108.437 29.6493C108.472 30.6257 108.507 31.7068 108.542 32.8924C108.576 34.0431 108.576 35.1416 108.542 36.1877C108.507 37.199 108.419 38.0708 108.28 38.8031C108.175 39.5005 107.966 39.9015 107.652 40.0062C107.338 40.1108 106.85 40.2154 106.188 40.32C105.525 40.3897 104.775 40.4595 103.938 40.5292C103.136 40.5641 102.3 40.5815 101.428 40.5815C100.556 40.5815 99.7539 40.5292 99.0216 40.4246C98.3242 40.32 97.7488 40.1631 97.2955 39.9539C96.8421 39.7098 96.6155 39.4133 96.6155 39.0646C96.6155 38.7857 96.598 38.0534 96.5632 36.8677C96.5283 35.6821 96.4934 34.2175 96.4585 32.4739C96.4585 30.6955 96.4411 28.7252 96.4062 26.5632C96.3714 24.3663 96.3365 22.152 96.3016 19.9202C96.3016 17.6884 96.3016 15.509 96.3016 13.3818C96.3365 11.2546 96.3714 9.35414 96.4062 7.68031C96.476 5.9716 96.5632 4.59418 96.6678 3.54804C96.8073 2.46702 96.9816 1.85677 97.1908 1.71728C97.5744 1.47318 98.3242 1.28139 99.4401 1.14191C100.556 0.967548 101.742 0.862934 102.997 0.828063C104.252 0.79319 105.421 0.862932 106.502 1.03729C107.617 1.17678 108.367 1.45575 108.751 1.87421C108.995 2.15318 109.309 2.76343 109.692 3.70496C110.111 4.64649 110.547 5.76237 111 7.05262C111.453 8.34286 111.924 9.70285 112.412 11.1326C112.935 12.5623 113.424 13.8874 113.877 15.1079C114.33 16.2936 114.766 17.2874 115.185 18.0894C115.603 18.8566 115.952 19.2402 116.231 19.2402C116.51 19.2751 116.667 18.8566 116.701 17.9848C116.736 17.0782 116.701 15.9623 116.597 14.6372C116.492 13.2772 116.353 11.8126 116.178 10.2434C116.004 8.67414 115.865 7.20954 115.76 5.84955C115.655 4.4547 115.603 3.30394 115.603 2.39728C115.603 1.45575 115.742 0.950112 116.021 0.88037C116.405 0.775755 117.137 0.688576 118.218 0.618834C119.299 0.54909 120.433 0.54909 121.618 0.618834C122.804 0.688576 123.885 0.845498 124.861 1.0896C125.838 1.3337 126.431 1.73472 126.64 2.29266C126.744 2.57164 126.849 3.32137 126.954 4.54187C127.058 5.76237 127.145 7.27928 127.215 9.0926C127.285 10.9059 127.355 12.9285 127.424 15.1602C127.494 17.3571 127.546 19.6064 127.581 21.9079C127.616 24.1745 127.616 26.3889 127.581 28.5509C127.581 30.7129 127.546 32.6483 127.477 34.357C127.407 36.0657 127.302 37.4431 127.163 38.4893C127.023 39.5354 126.849 40.0759 126.64 40.1108C126.221 40.2154 125.437 40.3374 124.286 40.4769C123.135 40.5815 121.915 40.6513 120.624 40.6862C119.369 40.6862 118.183 40.599 117.068 40.4246C115.952 40.2503 115.202 39.9015 114.818 39.3785C114.574 39.0298 114.313 38.4718 114.034 37.7046C113.755 36.9026 113.441 36.0134 113.092 35.037C112.778 34.0606 112.447 33.0493 112.098 32.0032C111.785 30.957 111.436 30.0155 111.052 29.1786C110.704 28.3068 110.337 27.5919 109.954 27.034C109.605 26.476 109.256 26.1971 108.908 26.1971ZM143.846 34.0954C143.741 34.4093 143.707 34.8975 143.741 35.5601C143.776 36.1877 143.794 36.8503 143.794 37.5477C143.794 38.2103 143.724 38.838 143.584 39.4308C143.445 39.9887 143.166 40.3374 142.748 40.4769C142.503 40.5467 142.294 40.6164 142.12 40.6862C141.98 40.7559 141.754 40.8082 141.44 40.8431C141.126 40.8779 140.69 40.9128 140.132 40.9477C139.574 40.9477 138.807 40.9303 137.831 40.8954C136.401 40.8605 135.146 40.7908 134.065 40.6862C133.018 40.5467 132.391 40.3374 132.182 40.0585C132.077 39.919 131.972 39.4133 131.868 38.5416C131.763 37.6349 131.676 36.4667 131.606 35.037C131.536 33.5724 131.467 31.9334 131.397 30.1201C131.362 28.2719 131.327 26.354 131.292 24.3663C131.292 22.3438 131.292 20.3212 131.292 18.2987C131.292 16.2413 131.31 14.3059 131.345 12.4926C131.379 10.6444 131.414 8.95311 131.449 7.41877C131.519 5.88442 131.589 4.64649 131.658 3.70496C131.728 2.93779 132.199 2.32754 133.071 1.87421C133.977 1.38601 135.111 1.03729 136.471 0.828063C137.831 0.583962 139.33 0.461911 140.969 0.461911C142.608 0.42704 144.177 0.461911 145.677 0.566524C147.211 0.636268 148.589 0.758319 149.809 0.932676C151.064 1.10703 151.971 1.26396 152.529 1.40344C153.994 1.8219 155.214 2.44958 156.191 3.2865C157.167 4.12342 157.952 5.13469 158.544 6.32032C159.137 7.47108 159.556 8.77876 159.8 10.2434C160.044 11.708 160.148 13.2772 160.114 14.951C160.079 16.6248 160.061 18.1243 160.061 19.4494C160.096 20.7745 160.061 21.9776 159.957 23.0586C159.887 24.1048 159.747 25.0463 159.538 25.8832C159.364 26.6853 159.05 27.4176 158.597 28.0801C158.074 28.8473 157.359 29.475 156.452 29.9632C155.58 30.4514 154.621 30.8524 153.575 31.1662C152.529 31.4801 151.465 31.7416 150.384 31.9509C149.303 32.1252 148.31 32.317 147.403 32.5262C146.496 32.7006 145.712 32.9098 145.049 33.1539C144.421 33.398 144.02 33.7119 143.846 34.0954ZM143.061 21.6463C143.061 22.274 143.375 22.7448 144.003 23.0586C144.665 23.3376 145.398 23.4596 146.2 23.4248C147.002 23.3899 147.752 23.2155 148.449 22.9017C149.146 22.5879 149.53 22.1171 149.6 21.4894C149.704 20.6525 149.792 19.8679 149.861 19.1356C149.931 18.4033 149.966 17.671 149.966 16.9387C150.001 16.1715 149.983 15.3695 149.914 14.5326C149.879 13.6956 149.809 12.7367 149.704 11.6557C149.635 11.028 149.269 10.5572 148.606 10.2434C147.943 9.92952 147.211 9.79003 146.409 9.8249C145.642 9.8249 144.927 9.98182 144.264 10.2957C143.602 10.5746 143.236 10.9931 143.166 11.551C143.061 12.4228 142.992 13.3992 142.957 14.4802C142.922 15.5613 142.922 16.6074 142.957 17.6187C142.992 18.5951 143.009 19.4669 143.009 20.234C143.044 20.9663 143.061 21.4371 143.061 21.6463ZM168.448 1.76959C168.727 1.42088 169.337 1.1419 170.278 0.932676C171.255 0.688575 172.388 0.531653 173.678 0.461911C175.003 0.357296 176.398 0.304988 177.863 0.304988C179.362 0.304988 180.792 0.33986 182.152 0.409605C183.512 0.479347 184.715 0.566525 185.761 0.67114C186.807 0.775756 187.54 0.88037 187.958 0.984983C188.446 1.12447 188.917 1.75216 189.37 2.86804C189.859 3.98393 190.312 5.4311 190.73 7.20954C191.149 8.95312 191.532 10.9408 191.881 13.1726C192.265 15.3695 192.596 17.6361 192.875 19.9725C193.154 22.3089 193.363 24.6278 193.503 26.9294C193.677 29.196 193.782 31.2534 193.817 33.1016C193.886 34.9498 193.869 36.5016 193.764 37.757C193.66 38.9775 193.468 39.7446 193.189 40.0585C193.015 40.2328 192.491 40.3897 191.62 40.5292C190.748 40.6338 189.771 40.721 188.69 40.7908C187.644 40.8256 186.598 40.8431 185.552 40.8431C184.541 40.8082 183.774 40.7559 183.251 40.6862C182.727 40.6164 182.292 40.2851 181.943 39.6923C181.629 39.0995 181.35 38.4195 181.106 37.6523C180.897 36.8852 180.722 36.1529 180.583 35.4554C180.478 34.758 180.408 34.2698 180.374 33.9908C180.304 33.7816 180.095 33.5898 179.746 33.4155C179.432 33.2411 179.066 33.1539 178.647 33.1539C178.229 33.119 177.828 33.1888 177.444 33.3631C177.096 33.5375 176.869 33.8862 176.764 34.4093C176.66 34.9324 176.573 35.5077 176.503 36.1354C176.433 36.7282 176.346 37.3036 176.241 37.8616C176.137 38.3846 175.997 38.8554 175.823 39.2739C175.683 39.6923 175.457 39.9713 175.143 40.1108C174.724 40.32 173.94 40.5118 172.789 40.6862C171.673 40.8256 170.488 40.8954 169.232 40.8954C167.977 40.8954 166.826 40.7908 165.78 40.5815C164.734 40.3723 164.089 40.0236 163.845 39.5354C163.531 38.8031 163.356 37.4605 163.321 35.5077C163.287 33.5549 163.356 31.2883 163.531 28.7078C163.705 26.1273 163.967 23.4073 164.315 20.5479C164.664 17.6535 165.065 14.9336 165.518 12.388C165.972 9.80747 166.442 7.55825 166.931 5.64032C167.454 3.72239 167.959 2.43215 168.448 1.76959ZM175.457 23.2155C175.457 23.8432 175.788 24.314 176.451 24.6278C177.113 24.9068 177.845 25.0463 178.647 25.0463C179.45 25.0114 180.182 24.8371 180.844 24.5232C181.542 24.1745 181.908 23.6863 181.943 23.0586C181.978 22.152 181.978 21.3325 181.943 20.6002C181.943 19.8679 181.908 19.1356 181.838 18.4033C181.803 17.671 181.734 16.9038 181.629 16.1018C181.524 15.2649 181.42 14.3059 181.315 13.2249C181.245 12.5972 180.949 12.1264 180.426 11.8126C179.903 11.4987 179.327 11.3592 178.7 11.3941C178.107 11.3941 177.549 11.551 177.026 11.8649C176.538 12.1439 176.259 12.5623 176.189 13.1203C176.084 13.992 175.98 14.9684 175.875 16.0495C175.805 17.1305 175.736 18.1766 175.666 19.1879C175.596 20.1643 175.544 21.0361 175.509 21.8033C175.474 22.5356 175.457 23.0063 175.457 23.2155ZM212.4 1.61267C212.435 4.40239 212.365 7.07006 212.191 9.61567C212.016 12.1613 211.877 14.5674 211.772 16.8341C211.668 19.0658 211.65 21.1407 211.72 23.0586C211.825 24.9766 212.138 26.7027 212.661 28.237C212.836 28.7601 213.307 29.0391 214.074 29.074C214.841 29.1088 215.713 29.074 216.689 28.9693C217.666 28.8299 218.659 28.7078 219.671 28.6032C220.717 28.4986 221.589 28.5683 222.286 28.8124C222.425 28.8822 222.652 29.3355 222.966 30.1724C223.28 30.9745 223.506 31.9334 223.646 33.0493C223.82 34.1652 223.803 35.3159 223.594 36.5016C223.419 37.6523 222.914 38.5939 222.077 39.3262C221.868 39.5354 221.153 39.7621 219.932 40.0062C218.747 40.2154 217.299 40.4072 215.591 40.5815C213.882 40.721 212.051 40.8256 210.098 40.8954C208.18 40.9651 206.385 40.9303 204.711 40.7908C203.037 40.6164 201.607 40.3374 200.422 39.9539C199.236 39.5354 198.573 38.9426 198.434 38.1754C198.329 37.5826 198.225 36.6062 198.12 35.2462C198.015 33.8862 197.911 32.2996 197.806 30.4863C197.736 28.6381 197.667 26.633 197.597 24.4709C197.562 22.3089 197.545 20.1469 197.545 17.9848C197.545 15.8228 197.562 13.7305 197.597 11.708C197.632 9.68542 197.684 7.88953 197.754 6.32032C197.824 4.71623 197.928 3.42599 198.068 2.44958C198.207 1.43831 198.382 0.897805 198.591 0.828063C198.87 0.723448 199.393 0.618833 200.16 0.514218C200.962 0.409605 201.869 0.322426 202.88 0.252682C203.926 0.148067 205.007 0.0957592 206.123 0.0957592C207.239 0.0957592 208.25 0.148067 209.157 0.252682C210.098 0.322426 210.866 0.479348 211.458 0.723447C212.086 0.932675 212.4 1.22908 212.4 1.61267Z" fill="#B577D5"/>
</svg>
