<svg width="217" height="205" viewBox="0 0 217 205" fill="none" xmlns="http://www.w3.org/2000/svg">
<path d="M123 13.8231C123 21.4376 108.5 103.234 108.5 103.234C108.5 103.234 94 21.4376 94 13.8231C94 10.157 95.5277 6.64104 98.2469 4.0487C100.966 1.45636 104.654 0 108.5 0C112.346 0 116.034 1.45636 118.753 4.0487C121.472 6.64104 123 10.157 123 13.8231Z" fill="#B577D5"/>
<path d="M94 190.517C94 182.902 108.5 101.106 108.5 101.106C108.5 101.106 123 182.902 123 190.517C123 194.183 121.472 197.699 118.753 200.291C116.034 202.884 112.346 204.34 108.5 204.34C104.654 204.34 100.966 202.884 98.2469 200.291C95.5277 197.699 94 194.183 94 190.517Z" fill="#B577D5"/>
<path d="M202.271 116.005C194.158 116.005 107 102.17 107 102.17C107 102.17 194.158 88.3345 202.271 88.3345C206.177 88.3345 209.924 89.7921 212.686 92.3868C215.448 94.9815 217 98.5006 217 102.17C217 105.839 215.448 109.359 212.686 111.953C209.924 114.548 206.177 116.005 202.271 116.005Z" fill="#B577D5"/>
<path d="M14.729 88.3345C22.8425 88.3345 110 102.17 110 102.17C110 102.17 22.8425 116.005 14.729 116.005C10.8226 116.005 7.07625 114.548 4.31402 111.953C1.55178 109.359 0 105.839 0 102.17C0 98.5006 1.55178 94.9815 4.31402 92.3868C7.07625 89.7921 10.8226 88.3345 14.729 88.3345Z" fill="#B577D5"/>
<path d="M185.636 49.3503C179.801 54.7829 107 103.234 107 103.234C107 103.234 158.762 35.0895 164.566 29.6273C165.949 28.3322 167.592 27.3049 169.399 26.6041C171.207 25.9032 173.144 25.5425 175.101 25.5425C177.057 25.5425 178.995 25.9032 180.802 26.6041C182.61 27.3049 184.253 28.3322 185.636 29.6273C187.02 30.9223 188.117 32.4597 188.866 34.1517C189.615 35.8438 190 37.6573 190 39.4888C190 41.3202 189.615 43.1337 188.866 44.8258C188.117 46.5178 187.02 48.0552 185.636 49.3503Z" fill="#B577D5"/>
<path d="M31.3639 154.99C37.1993 149.557 110 101.106 110 101.106C110 101.106 58.2383 169.25 52.4344 174.713C49.6403 177.328 45.8508 178.797 41.8993 178.797C37.9478 178.797 34.158 177.328 31.3639 174.713C28.5698 172.097 27 168.55 27 164.851C27 161.152 28.5698 157.605 31.3639 154.99Z" fill="#B577D5"/>
<path d="M164.566 174.713C158.762 169.25 107 101.106 107 101.106C107 101.106 179.801 149.557 185.636 154.99C188.43 157.605 190 161.152 190 164.851C190 168.55 188.43 172.097 185.636 174.713C182.842 177.328 179.052 178.797 175.101 178.797C171.149 178.797 167.36 177.328 164.566 174.713Z" fill="#B577D5"/>
<path d="M52.4344 29.6273C58.2383 35.0895 110 103.234 110 103.234C110 103.234 37.1993 54.7829 31.3639 49.3503C29.9804 48.0552 28.8829 46.5178 28.1341 44.8258C27.3854 43.1337 27 41.3202 27 39.4888C27 37.6573 27.3854 35.8438 28.1341 34.1517C28.8829 32.4597 29.9804 30.9223 31.3639 29.6273C32.7474 28.3322 34.3899 27.3049 36.1975 26.6041C38.0052 25.9032 39.9427 25.5425 41.8993 25.5425C43.8558 25.5425 45.7931 25.9032 47.6008 26.6041C49.4084 27.3049 51.0509 28.3322 52.4344 29.6273Z" fill="#B577D5"/>
</svg>
