<svg width="209" height="205" viewBox="0 0 209 205" fill="none" xmlns="http://www.w3.org/2000/svg">
<path d="M181.404 102.176C183.249 100.67 185.048 99.0731 186.785 97.3709C212.495 72.1846 215.971 34.7517 194.551 13.7682C173.115 -7.23038 134.904 -3.82602 109.194 21.3602C107.456 23.0624 105.826 24.8248 104.289 26.6325C102.751 24.8248 101.121 23.0624 99.3834 21.3602C73.6887 -3.82602 35.4772 -7.23038 14.0573 13.7682C-7.37807 34.7517 -3.9029 72.1846 21.8072 97.3709C23.5448 99.0731 25.3439 100.67 27.1891 102.176C25.3439 103.683 23.5448 105.279 21.8072 106.981C-3.9029 132.168 -7.37807 169.601 14.0419 190.584C35.4618 211.568 73.6733 208.163 99.3834 182.977C101.121 181.275 102.751 179.512 104.289 177.705C105.826 179.512 107.456 181.275 109.194 182.977C134.904 208.163 173.115 211.568 194.535 190.584C215.955 169.601 212.48 132.168 186.77 106.981C185.048 105.264 183.249 103.667 181.404 102.176ZM104.304 141.462C82.146 141.462 64.1858 123.868 64.1858 102.161C64.1858 80.4545 82.146 62.8603 104.304 62.8603C126.462 62.8603 144.422 80.4545 144.422 102.161C144.407 123.868 126.447 141.462 104.304 141.462Z" fill="#FBEE7B"/>
</svg>
